# xmcd
#
# Track frame offsets:
# 150
# 28599
# 47283
# 64601
# 95157
# 114284
# 138820
# 154065
# 179686
# 194569
# 217654
# 242656
# 264328
# 282351
# 303658
#
# Disc length: 4417 seconds
#
#
# Revision: 0
# Processed by: cddbd v1.5.2PL0 Copyright (c) Steve Scherf et al.
# Submitted via: FreeRIP 2.96 
#
DISCID=ce113f0f
DTITLE=T.A. Barron - Merlin und der Zauberspiegel CD2
DYEAR=2006
DGENRE=Hörbuch
TTITLE0=17 Am Fuss des Hangs beim Moorufer
TTITLE1=18 Und dann stoehnte das Buendel
TTITLE2=19 Ernst dachte ich ueber seine Worte nach
TTITLE3=20 Ein wunderschoenes Damtier sprang ueber das Gras
TTITLE4=21 Lautes Gebruell von oben am Hang
TTITLE5=22 Ploetzlich verstummte der Balimag
TTITLE6=23 Fluessiges Licht !
TTITLE7=24 Zum Schlafen kuschelten wird uns an die weichen Waende
TTITLE8=25 Wir sollten jetzt gehen
TTITLE9=26 Halia beugte sich zu mir
TTITLE10=27 Ich betrachtete ihn nachdenklich
TTITLE11=28 Dann, allmaehlich, bemerkte ich eine Veraenderung
TTITLE12=29 Halia fuhr mir ueber die Stirn
TTITLE13=30 Der Junge legte das Flaeschchen an meine Lippen
TTITLE14=31 Endlich erreichten wir die Anhoehe
EXTD=gelesen von Stefan Wilkening
EXTT0=
EXTT1=
EXTT2=
EXTT3=
EXTT4=
EXTT5=
EXTT6=
EXTT7=
EXTT8=
EXTT9=
EXTT10=
EXTT11=
EXTT12=
EXTT13=
EXTT14=
PLAYORDER=
